<svg xmlns="http://www.w3.org/2000/svg" xmlns:xlink="http://www.w3.org/1999/xlink" width="2000" zoomAndPan="magnify" viewBox="0 0 1500 1499.999933" height="2000" preserveAspectRatio="xMidYMid meet" version="1.0"><defs><g/><clipPath id="24fb794aca"><path d="M 202 0.078125 L 374 0.078125 L 374 234 L 202 234 Z M 202 0.078125 " clip-rule="nonzero"/></clipPath><clipPath id="07872fc874"><rect x="0" width="606" y="0" height="323"/></clipPath></defs><g fill="#000000" fill-opacity="1"><g transform="translate(726.995302, 842.456403)"><g><path d="M 101.609375 2.546875 C 82.554688 2.546875 66.1875 -2.117188 52.5 -11.453125 C 38.820312 -20.796875 28.441406 -33.296875 21.359375 -48.953125 C 14.285156 -64.617188 10.75 -81.609375 10.75 -99.921875 C 10.75 -118.222656 14.285156 -135.15625 21.359375 -150.71875 C 28.441406 -166.289062 38.820312 -178.742188 52.5 -188.078125 C 66.1875 -197.421875 82.554688 -202.09375 101.609375 -202.09375 C 124.816406 -202.09375 143.78125 -195.300781 158.5 -181.71875 C 173.21875 -168.132812 182.75 -150.582031 187.09375 -129.0625 L 144.359375 -129.0625 C 142.085938 -138.875 137.222656 -147.082031 129.765625 -153.6875 C 122.316406 -160.289062 113.125 -163.59375 102.1875 -163.59375 C 87.082031 -163.59375 75.707031 -157.695312 68.0625 -145.90625 C 60.425781 -134.113281 56.609375 -118.785156 56.609375 -99.921875 C 56.609375 -80.671875 60.425781 -65.195312 68.0625 -53.5 C 75.707031 -41.800781 87.082031 -35.953125 102.1875 -35.953125 C 112.9375 -35.953125 121.941406 -39.15625 129.203125 -45.5625 C 136.472656 -51.976562 141.332031 -59.625 143.78125 -68.5 L 185.96875 -68.5 C 181.8125 -47.738281 172.421875 -30.707031 157.796875 -17.40625 C 143.171875 -4.101562 124.441406 2.546875 101.609375 2.546875 Z M 101.609375 2.546875 "/></g></g></g><g fill="#000000" fill-opacity="1"><g transform="translate(901.35342, 842.456403)"><g><path d="M 102.1875 2.546875 C 82.363281 2.546875 65.566406 -2.023438 51.796875 -11.171875 C 38.023438 -20.328125 27.691406 -32.59375 20.796875 -47.96875 C 13.910156 -63.351562 10.46875 -80.382812 10.46875 -99.0625 C 10.46875 -117.75 13.957031 -134.921875 20.9375 -150.578125 C 27.925781 -166.242188 38.304688 -178.742188 52.078125 -188.078125 C 65.859375 -197.421875 82.5625 -202.09375 102.1875 -202.09375 C 121.425781 -202.09375 137.882812 -197.46875 151.5625 -188.21875 C 165.25 -178.976562 175.535156 -166.476562 182.421875 -150.71875 C 189.304688 -134.96875 192.75 -117.65625 192.75 -98.78125 C 192.75 -79.914062 189.304688 -62.789062 182.421875 -47.40625 C 175.535156 -32.03125 165.25 -19.859375 151.5625 -10.890625 C 137.882812 -1.929688 121.425781 2.546875 102.1875 2.546875 Z M 101.890625 -36.796875 C 115.859375 -36.796875 126.660156 -42.738281 134.296875 -54.625 C 141.941406 -66.507812 145.765625 -81.414062 145.765625 -99.34375 C 145.765625 -117.082031 141.988281 -132.082031 134.4375 -144.34375 C 126.894531 -156.613281 116.046875 -162.75 101.890625 -162.75 C 92.273438 -162.75 84.113281 -159.820312 77.40625 -153.96875 C 70.707031 -148.125 65.707031 -140.390625 62.40625 -130.765625 C 59.101562 -121.140625 57.453125 -110.664062 57.453125 -99.34375 C 57.453125 -81.800781 61.273438 -66.988281 68.921875 -54.90625 C 76.566406 -42.832031 87.554688 -36.796875 101.890625 -36.796875 Z M 101.890625 -36.796875 "/></g></g></g><g fill="#000000" fill-opacity="1"><g transform="translate(1083.070822, 842.456403)"><g><path d="M 81.515625 -69.34375 L 58.59375 -69.34375 L 58.59375 0 L 14.71875 0 L 14.71875 -198.140625 L 90.015625 -198.140625 C 105.671875 -198.140625 118.921875 -195.117188 129.765625 -189.078125 C 140.617188 -183.035156 148.6875 -175.0625 153.96875 -165.15625 C 159.257812 -155.25 161.90625 -144.539062 161.90625 -133.03125 C 161.90625 -120.195312 158.695312 -108.640625 152.28125 -98.359375 C 145.863281 -88.078125 136.425781 -80.390625 123.96875 -75.296875 L 166.4375 0 L 120.296875 0 Z M 58.59375 -105.296875 L 82.9375 -105.296875 C 93.125 -105.296875 101.707031 -107.414062 108.6875 -111.65625 C 115.664062 -115.90625 119.15625 -123.03125 119.15625 -133.03125 C 119.15625 -142.65625 115.710938 -149.492188 108.828125 -153.546875 C 101.941406 -157.609375 93.3125 -159.640625 82.9375 -159.640625 L 58.59375 -159.640625 Z M 58.59375 -105.296875 "/></g></g></g><g fill="#000000" fill-opacity="1"><g transform="translate(1235.917231, 842.456403)"><g><path d="M 90.015625 -198.140625 C 105.671875 -198.140625 118.921875 -194.929688 129.765625 -188.515625 C 140.617188 -182.097656 148.6875 -173.601562 153.96875 -163.03125 C 159.257812 -152.46875 161.90625 -141.050781 161.90625 -128.78125 C 161.90625 -116.707031 159.304688 -105.523438 154.109375 -95.234375 C 148.921875 -84.953125 140.898438 -76.695312 130.046875 -70.46875 C 119.203125 -64.25 105.859375 -61.140625 90.015625 -61.140625 L 58.03125 -61.140625 L 58.03125 0 L 14.71875 0 L 14.71875 -198.140625 Z M 82.9375 -97.375 C 93.125 -97.375 101.707031 -99.773438 108.6875 -104.578125 C 115.664062 -109.390625 119.15625 -117.457031 119.15625 -128.78125 C 119.15625 -140.101562 115.710938 -148.03125 108.828125 -152.5625 C 101.941406 -157.09375 93.3125 -159.359375 82.9375 -159.359375 L 58.03125 -159.359375 L 58.03125 -97.375 Z M 82.9375 -97.375 "/></g></g></g><g transform="matrix(1, 0, 0, 1, 109, 604)"><g clip-path="url(#07872fc874)"><g fill="#000000" fill-opacity="1"><g transform="translate(1.246228, 230.137804)"><g><path d="M 214.265625 -164.875 L 209.140625 -164.875 C 209.773438 -167.863281 210.09375 -170.535156 210.09375 -172.890625 C 210.09375 -184.015625 206.40625 -192.25 199.03125 -197.59375 C 191.65625 -202.9375 181.765625 -205.609375 169.359375 -205.609375 L 125.421875 -205.609375 L 100.71875 -119.328125 L 128.953125 -119.328125 C 150.117188 -119.328125 163.910156 -129.695312 170.328125 -150.4375 L 176.421875 -150.4375 L 154.28125 -73.453125 L 148.1875 -73.453125 C 150.113281 -79.441406 151.078125 -85.003906 151.078125 -90.140625 C 151.078125 -96.984375 149.046875 -101.738281 144.984375 -104.40625 C 140.921875 -107.082031 135.039062 -108.421875 127.34375 -108.421875 L 97.515625 -108.421875 L 75.0625 -29.828125 C 74.207031 -26.410156 73.78125 -23.738281 73.78125 -21.8125 C 73.78125 -14.539062 78.375 -10.90625 87.5625 -10.90625 L 111.625 -10.90625 C 131.507812 -10.90625 148.882812 -15.445312 163.75 -24.53125 C 178.613281 -33.625 189.253906 -45.332031 195.671875 -59.65625 L 202.078125 -59.65625 L 181.546875 0 L 5.453125 0 L 4.8125 -5.78125 C 13.582031 -5.78125 20.476562 -6.898438 25.5 -9.140625 C 30.519531 -11.390625 34.523438 -15.023438 37.515625 -20.046875 C 40.515625 -25.066406 43.40625 -32.285156 46.1875 -41.703125 L 81.15625 -164.234375 C 86.070312 -181.335938 88.53125 -191.492188 88.53125 -194.703125 C 88.53125 -201.546875 86.175781 -205.929688 81.46875 -207.859375 C 76.769531 -209.785156 70.785156 -210.75 63.515625 -210.75 L 65.109375 -216.515625 L 229.03125 -216.515625 Z M 214.265625 -164.875 "/></g></g></g><g clip-path="url(#24fb794aca)"><g fill="#000000" fill-opacity="1"><g transform="translate(192.736113, 230.137804)"><g><path d="M 123.8125 -30.15625 C 121.882812 -23.09375 120.921875 -18.382812 120.921875 -16.03125 C 120.921875 -14.75 121.296875 -13.679688 122.046875 -12.828125 C 122.796875 -11.972656 123.707031 -11.546875 124.78125 -11.546875 C 127.34375 -11.546875 131.082031 -13.738281 136 -18.125 C 140.914062 -22.507812 145.515625 -27.910156 149.796875 -34.328125 L 154.28125 -30.15625 C 147.65625 -20.53125 139.957031 -12.457031 131.1875 -5.9375 C 122.425781 0.582031 115.15625 3.84375 109.375 3.84375 C 105.3125 3.84375 102.101562 2.347656 99.75 -0.640625 C 97.40625 -3.628906 96.234375 -7.050781 96.234375 -10.90625 C 96.234375 -14.320312 96.660156 -18.007812 97.515625 -21.96875 C 98.367188 -25.925781 99.117188 -28.65625 99.765625 -30.15625 L 107.140625 -55.171875 L 106.5 -55.8125 C 96.226562 -40.625 85 -26.882812 72.8125 -14.59375 C 60.625 -2.300781 48.96875 3.84375 37.84375 3.84375 C 28.863281 3.84375 21.859375 -0.320312 16.828125 -8.65625 C 11.804688 -17 9.296875 -26.195312 9.296875 -36.25 C 9.296875 -52.5 14.269531 -69.285156 24.21875 -86.609375 C 34.164062 -103.929688 46.566406 -118.257812 61.421875 -129.59375 C 76.285156 -140.925781 90.5625 -146.59375 104.25 -146.59375 C 114.082031 -146.59375 122.421875 -142.101562 129.265625 -133.125 L 146.90625 -194.703125 C 148.832031 -201.546875 149.796875 -206.460938 149.796875 -209.453125 C 149.796875 -212.660156 148.507812 -214.691406 145.9375 -215.546875 C 143.375 -216.410156 139.957031 -216.84375 135.6875 -216.84375 L 126.703125 -216.515625 L 126.375 -221.328125 L 175.140625 -229.984375 L 180.90625 -229.984375 Z M 62.546875 -110.34375 C 54.847656 -99.4375 48.539062 -87.40625 43.625 -74.25 C 38.707031 -61.101562 36.25 -49.078125 36.25 -38.171875 C 36.25 -30.046875 37.691406 -24.054688 40.578125 -20.203125 C 43.460938 -16.359375 47.363281 -14.4375 52.28125 -14.4375 C 60.40625 -14.4375 70.023438 -20.421875 81.140625 -32.390625 C 92.265625 -44.367188 101.890625 -58.644531 110.015625 -75.21875 C 118.148438 -91.789062 122.21875 -106.382812 122.21875 -119 C 122.21875 -126.269531 120.128906 -131.671875 115.953125 -135.203125 C 111.785156 -138.734375 107.457031 -140.5 102.96875 -140.5 C 96.757812 -140.5 90.070312 -137.769531 82.90625 -132.3125 C 75.75 -126.863281 68.960938 -119.539062 62.546875 -110.34375 Z M 62.546875 -110.34375 "/></g></g></g></g><g fill="#000000" fill-opacity="1"><g transform="translate(330.659426, 230.137804)"><g><path d="M 103.921875 -146.59375 C 112.910156 -146.59375 120.453125 -144.347656 126.546875 -139.859375 C 132.640625 -135.367188 135.6875 -129.59375 135.6875 -122.53125 C 135.6875 -115.6875 132.476562 -107.878906 126.0625 -99.109375 C 119.644531 -90.347656 109.21875 -82.597656 94.78125 -75.859375 C 80.351562 -69.117188 62.019531 -65.429688 39.78125 -64.796875 C 38.488281 -60.515625 37.84375 -55.273438 37.84375 -49.078125 C 37.84375 -36.035156 41.367188 -26.570312 48.421875 -20.6875 C 55.484375 -14.8125 63.289062 -11.875 71.84375 -11.875 C 86.175781 -11.875 100.71875 -19.035156 115.46875 -33.359375 L 119.640625 -29.515625 C 96.765625 -7.273438 74.632812 3.84375 53.25 3.84375 C 44.476562 3.84375 36.832031 1.65625 30.3125 -2.71875 C 23.789062 -7.101562 18.867188 -12.820312 15.546875 -19.875 C 12.234375 -26.9375 10.578125 -34.210938 10.578125 -41.703125 C 10.578125 -56.671875 14.90625 -72.382812 23.5625 -88.84375 C 32.226562 -105.3125 43.78125 -119.050781 58.21875 -130.0625 C 72.65625 -141.082031 87.890625 -146.59375 103.921875 -146.59375 Z M 41.703125 -70.890625 C 56.242188 -71.960938 68.003906 -74.421875 76.984375 -78.265625 C 85.753906 -82.117188 92.863281 -87.09375 98.3125 -93.1875 C 103.769531 -99.28125 107.671875 -105.265625 110.015625 -111.140625 C 112.367188 -117.023438 113.546875 -121.890625 113.546875 -125.734375 C 113.546875 -129.367188 112.207031 -132.738281 109.53125 -135.84375 C 106.863281 -138.945312 103.070312 -140.5 98.15625 -140.5 C 89.601562 -140.5 81.316406 -136.539062 73.296875 -128.625 C 65.273438 -120.71875 58.429688 -111.3125 52.765625 -100.40625 C 47.097656 -89.5 43.410156 -79.660156 41.703125 -70.890625 Z M 41.703125 -70.890625 "/></g></g></g><g fill="#000000" fill-opacity="1"><g transform="translate(448.695778, 230.137804)"><g><path d="M 50.359375 -72.171875 C 63.828125 -94.410156 77.40625 -112.375 91.09375 -126.0625 C 104.78125 -139.75 117.503906 -146.59375 129.265625 -146.59375 C 134.179688 -146.59375 138.296875 -144.929688 141.609375 -141.609375 C 144.929688 -138.296875 146.59375 -133.539062 146.59375 -127.34375 C 146.59375 -121.570312 145.09375 -113.234375 142.09375 -102.328125 L 121.890625 -33.03125 C 119.960938 -26.195312 119 -21.492188 119 -18.921875 C 119 -16.992188 119.476562 -15.601562 120.4375 -14.75 C 121.40625 -13.894531 122.425781 -13.46875 123.5 -13.46875 C 126.0625 -13.46875 130.015625 -16.25 135.359375 -21.8125 C 140.703125 -27.375 144.335938 -31.757812 146.265625 -34.96875 L 151.078125 -31.109375 C 144.453125 -21.921875 137.019531 -13.796875 128.78125 -6.734375 C 120.550781 0.316406 112.800781 3.84375 105.53125 3.84375 C 102.113281 3.84375 99.226562 2.507812 96.875 -0.15625 C 94.519531 -2.832031 93.34375 -6.414062 93.34375 -10.90625 C 93.34375 -15.613281 94.519531 -21.921875 96.875 -29.828125 L 118.6875 -106.5 C 118.894531 -107.132812 119.425781 -108.894531 120.28125 -111.78125 C 121.132812 -114.675781 121.5625 -117.507812 121.5625 -120.28125 C 121.5625 -123.0625 120.8125 -125.203125 119.3125 -126.703125 C 117.820312 -128.203125 116.222656 -128.953125 114.515625 -128.953125 C 109.597656 -128.953125 102.488281 -124.78125 93.1875 -116.4375 C 83.882812 -108.09375 74.847656 -97.613281 66.078125 -85 C 58.585938 -74.519531 52.546875 -64.84375 47.953125 -55.96875 C 43.359375 -47.09375 39.242188 -36.347656 35.609375 -23.734375 C 32.828125 -14.535156 30.582031 -6.625 28.875 0 L 4.171875 0 L 34.640625 -106.8125 C 34.859375 -107.457031 35.609375 -110.1875 36.890625 -115 C 38.171875 -119.8125 38.8125 -123.285156 38.8125 -125.421875 C 38.8125 -127.984375 37.898438 -129.957031 36.078125 -131.34375 C 34.265625 -132.738281 31.863281 -133.4375 28.875 -133.4375 C 25.875 -133.4375 21.59375 -133.222656 16.03125 -132.796875 L 16.03125 -138.578125 L 65.109375 -146.59375 L 70.890625 -146.59375 L 49.71875 -72.8125 Z M 50.359375 -72.171875 "/></g></g></g></g></g></svg>